<svg xmlns="http://www.w3.org/2000/svg" viewBox="0 0 500 500"><g id="freepik--background-complete--inject-54"><g><path d="M111.7,117.64c-1.37,1.51-2.65,3.08-3.85,4.73-.11,.47-1.64,4.73-1.64,4.73l-2.94,3.54s-.61,.88-1.39,2.18c-.78,1.29-5.25,9.32-5.25,9.32l-2.08,4.78-4.98,3.56h0l-.35,.26-1.94-1.46h0l-3.61-.41-11.2-6.91-6.22-4.98h0l-2.37-1.89-1.24-6.23,13.82-11.65,3.61-2.85h0l9.44-1.24,4.77-1.86s5.78,1.24,7.47,0c1.01-.76,3.15,.49,4.71,1.61,.64,.45,1.25,.93,1.84,1.44l3.42,3.32Z" style="fill:#e6e6e6;"></path><polygon points="94.35 139.14 93.66 142.22 91.56 143.5 91.7 141.6 94.35 139.14" style="fill:#f5f5f5; isolation:isolate;"></polygon><path d="M99.61,131.03l2.2-1.03s-.54,2.81-1.56,2.49c-.57-.19-.87-.81-.68-1.37,0-.03,.02-.06,.03-.08Z" style="fill:#f5f5f5; isolation:isolate;"></path></g><g><g><g><path d="M443.92,318.41h-180.75c-3.23,0-5.86-2.63-5.86-5.86V49.28c0-3.23,2.63-5.86,5.86-5.86h180.75c3.23,0,5.86,2.63,5.86,5.86V312.55c0,3.23-2.63,5.86-5.86,5.86ZM263.17,43.66c-3.09,0-5.61,2.52-5.61,5.61V312.55c0,3.09,2.52,5.61,5.61,5.61h180.75c3.09,0,5.61-2.52,5.61-5.61V49.28c0-3.09-2.52-5.61-5.61-5.61h-180.75Z" style="fill:#e0e0e0;"></path><path d="M235.49,318.41H54.75c-3.23,0-5.86-2.63-5.86-5.86V49.28c0-3.23,2.63-5.86,5.86-5.86H235.49c3.23,0,5.86,2.63,5.86,5.86V312.55c0,3.23-2.63,5.86-5.86,5.86ZM54.75,43.66c-3.09,0-5.61,2.52-5.61,5.61V312.55c0,3.09,2.52,5.61,5.61,5.61H235.49c3.09,0,5.61-2.52,5.61-5.61V49.28c0-3.09-2.52-5.61-5.61-5.61H54.75Z" style="fill:#e0e0e0;"></path></g><rect x="0" y="379.48" width="500" height=".25" style="fill:#e0e0e0;"></rect></g><rect x="51.67" y="393.75" width="16.06" height=".25" style="fill:#e0e0e0;"></rect><rect x="170.35" y="391.04" width="53.53" height=".25" style="fill:#e0e0e0;"></rect><rect x="68.73" y="403.04" width="36.25" height=".25" style="fill:#e0e0e0;"></rect><rect x="378.35" y="390.91" width="43.19" height=".25" style="fill:#e0e0e0;"></rect><rect x="430.45" y="390.91" width="6.33" height=".25" style="fill:#e0e0e0;"></rect><rect x="316.21" y="397.14" width="53.89" height=".25" style="fill:#e0e0e0;"></rect></g><g><path d="M312.71,212.77v-7.87h7s-1.13,6.39-1.85,6.39c-1.74,.4-3.46,.89-5.14,1.48Z" style="fill:#ebebeb;"></path><path d="M312.71,204.9l3.52,2.88s-1.24,4.08-3.52,4.98v-7.86Z" style="fill:#fff; isolation:isolate; opacity:.2;"></path></g><g><path d="M108.76,389.58c-1.43-1.24-3.25-2.8-3.45-2.86-.35-.08-3.48-1.24-3.48-1.24l-2.57-2.19s-.65-.44-1.6-1.03-6.81-3.92-6.81-3.92l-3.51-1.56-2.58-3.66h0l-.18-.26,1.08-1.42h0l.33-2.64,5.14-8.24,3.72-4.58h0l1.35-1.65,4.58-.92,8.48,10.22,2.09,2.75,.05,.05,.81,6.95,1.34,3.51s-.92,4.25-.05,5.49c.54,.74-.38,2.32-1.21,3.45-.56,.77-1.07,1.35-1.07,1.35l-2.45,2.38Z" style="fill:#e0e0e0;"></path><path d="M110.79,385.8c-1.83-1.05-3.75-2.19-4.18-2.53-.59-.45-18.77-13.2-20.48-14.41l-.13-.08h0l5.14-8.24,3.72-4.58h0l1.35-1.65,4.58-.92,8.48,10.22,2.09,2.75-2.14,3.76,2.68,5.79h0l.43,.92-1.1,8.24h0l-.44,.72Z" style="fill:#e0e0e0; isolation:isolate; opacity:.2;"></path><path d="M84.56,372.86l1.08-1.41c-.26,.49-.57,1.07-.92,1.67l-.16-.27Z" style="fill:#fff; isolation:isolate; opacity:.2;"></path><path d="M112.28,385.8l-1.06-.69-25.09-16.29-.13-.08h0l5.14-8.24,3.72-4.58h0l1.35-1.65,4.58-.92,8.48,10.22,2.09,2.75,.05,.05,.81,6.95,1.34,3.51s-.92,4.25-.05,5.49c.52,.76-.39,2.33-1.23,3.46Z" style="fill:#e6e6e6;"></path><polygon points="111.22 385.12 111.22 385.13 86.13 368.83 86 368.75 93.86 364.21 100.4 368.46 111.88 375.91 111.89 375.92 112.32 376.87 111.22 385.12" style="fill:#f5f5f5; isolation:isolate; opacity:.1;"></polygon><polygon points="111.88 375.91 100.4 368.46 93.86 364.21 93.8 364.18 100.77 353.43 109.25 363.66 111.34 366.36 109.2 370.12 111.88 375.91" style="fill:#f0f0f0; isolation:isolate;"></polygon><polygon points="93.05 376.7 90.79 376.17 89.85 374.62 91.25 374.73 93.05 376.7" style="fill:#f5f5f5; isolation:isolate;"></polygon><path d="M98.98,380.62l.75,1.62s-2.07-.41-1.78-1.16c.15-.41,.6-.62,1.01-.47h.02Z" style="fill:#f5f5f5; isolation:isolate;"></path></g><g><path d="M411.53,90.23c-1.76,.71-3.97,1.63-4.11,1.78-.23,.27-2.67,2.54-2.67,2.54l-3.11,1.3s-.69,.38-1.65,.96c-.96,.58-6.57,4.3-6.57,4.3l-2.99,2.43-4.43,.65h0l-.31,.05-.78-1.6h0l-2.21-1.49-5.02-8.31-2.4-5.39h0l-.86-1.94,1.25-4.49,12.95-2.94,3.39-.62,.07-.02,6.56,2.42,3.74,.4s3.37,2.74,4.88,2.53c.91-.15,1.89,1.38,2.53,2.64,.43,.85,.72,1.56,.72,1.56l1.01,3.26Z" style="fill:#e0e0e0;"></path><path d="M409.08,86.71c-1.77,1.16-3.65,2.36-4.14,2.59-.66,.32-20.27,10.76-22.12,11.74l-.13,.08h0l-5.02-8.31-2.4-5.39h0l-.86-1.94,1.25-4.49,12.95-2.94,3.39-.62,2.39,3.61,6.38,.23h0l1.01,.03,6.85,4.71h0l.45,.72Z" style="fill:#e0e0e0; isolation:isolate; opacity:.2;"></path><path d="M385.67,104.25l-.77-1.6c.32,.45,.7,.99,1.08,1.57l-.31,.03Z" style="fill:#fff; isolation:isolate; opacity:.2;"></path><path d="M409.76,85.38l-1.09,.64-25.88,15.01-.13,.08h0l-5.02-8.31-2.4-5.39h0l-.86-1.94,1.25-4.49,12.95-2.94,3.39-.62,.07-.02,6.56,2.42,3.74,.4s3.37,2.74,4.88,2.52c.91-.12,1.9,1.41,2.53,2.66Z" style="fill:#e6e6e6;"></path><polygon points="408.67 86.02 408.68 86.02 382.79 101.03 382.66 101.1 382.17 92.04 388.91 88.13 400.76 81.27 400.77 81.26 401.81 81.31 408.67 86.02" style="fill:#f5f5f5; isolation:isolate; opacity:.1;"></polygon><polygon points="400.76 81.27 388.91 88.13 382.17 92.04 382.12 92.09 375.68 81 388.65 78.07 392 77.43 394.38 81.04 400.76 81.27" style="fill:#f0f0f0; isolation:isolate;"></polygon><polygon points="392.94 98.42 391.45 100.19 389.64 100.33 390.38 99.13 392.94 98.42" style="fill:#f5f5f5; isolation:isolate;"></polygon><path d="M399.12,94.9l1.78,.06s-1.3,1.66-1.84,1.07c-.3-.32-.28-.82,.04-1.11l.02-.02Z" style="fill:#f5f5f5; isolation:isolate;"></path><path d="M384.9,102.65l-.05-.02h0l.05,.02Z" style="fill:#fff;"></path></g><g><path d="M460.18,174.5c-.98,.14-2.21,.32-2.3,.38-.15,.11-1.67,.94-1.67,.94l-1.74,.26s-.39,.11-.95,.28c-.56,.17-3.87,1.34-3.87,1.34l-1.82,.85-2.32-.24h0l-.16-.02-.19-.91h0l-.93-1.03-1.48-4.84-.52-3.03h0l-.19-1.09,1.21-2.11,6.92,.16,1.79,.12h.04l3.01,2.06,1.84,.68s1.36,1.81,2.14,1.9c.48,.04,.78,.94,.94,1.65,.11,.48,.16,.88,.16,.88l.1,1.78Z" style="fill:#e0e0e0;"></path><path d="M459.39,172.41c-1.04,.36-2.14,.73-2.42,.78-.38,.08-11.61,2.86-12.67,3.12l-.08,.02h0l-1.48-4.84-.52-3.03h0l-.19-1.09,1.21-2.11,6.92,.16,1.79,.12,.75,2.13,3.19,.93h0l.51,.14,2.86,3.25h0l.13,.42Z" style="fill:#e0e0e0; isolation:isolate; opacity:.2;"></path><path d="M445.33,178.3l-.18-.91c.11,.27,.23,.59,.35,.93l-.16-.03Z" style="fill:#fff; isolation:isolate; opacity:.2;"></path><path d="M459.9,171.83l-.63,.18-14.98,4.29-.08,.02h0l-1.48-4.84-.52-3.03h0l-.19-1.09,1.21-2.11,6.92,.16,1.79,.12h.04l3.01,2.06,1.84,.68s1.36,1.81,2.14,1.9c.48,.05,.78,.95,.94,1.66Z" style="fill:#e6e6e6;"></path><polygon points="459.27 172.01 459.27 172.02 444.29 176.3 444.21 176.32 445.11 171.68 449.02 170.57 455.88 168.61 455.88 168.61 456.4 168.76 459.27 172.01" style="fill:#f5f5f5; isolation:isolate; opacity:.1;"></polygon><polygon points="455.88 168.61 449.02 170.57 445.11 171.68 445.08 171.7 443.24 165.28 450.16 165.45 451.94 165.55 452.68 167.68 455.88 168.61" style="fill:#f0f0f0; isolation:isolate;"></polygon><polygon points="449.74 176.28 448.76 176.98 447.84 176.82 448.36 176.31 449.74 176.28" style="fill:#f5f5f5; isolation:isolate;"></polygon><path d="M453.31,175.28l.89,.26s-.87,.67-1.07,.3c-.11-.2-.04-.45,.16-.56h.01Z" style="fill:#f5f5f5; isolation:isolate;"></path><path d="M445.14,177.39l-.02-.02h0l.02,.02Z" style="fill:#fff;"></path></g><g><path d="M63.55,203.34c-.98,.14-2.21,.32-2.3,.38-.15,.11-1.67,.94-1.67,.94l-1.74,.26s-.39,.11-.95,.28c-.56,.17-3.87,1.34-3.87,1.34l-1.82,.85-2.32-.24h0l-.16-.02-.19-.91h0l-.93-1.03-1.48-4.84-.52-3.03h0l-.19-1.09,1.21-2.11,6.92,.16,1.79,.12h.04l3.01,2.06,1.84,.68s1.36,1.81,2.14,1.9c.48,.04,.78,.94,.94,1.65,.11,.48,.16,.88,.16,.88l.1,1.78Z" style="fill:#e0e0e0;"></path><path d="M62.76,201.25c-1.04,.36-2.14,.73-2.42,.78-.38,.08-11.61,2.86-12.67,3.12l-.08,.02h0l-1.48-4.84-.52-3.03h0l-.19-1.09,1.21-2.11,6.92,.16,1.79,.12,.75,2.13,3.19,.93h0l.51,.14,2.86,3.25h0l.13,.42Z" style="fill:#e0e0e0; isolation:isolate; opacity:.2;"></path><path d="M48.7,207.14l-.18-.91c.11,.27,.23,.59,.35,.93l-.16-.03Z" style="fill:#fff; isolation:isolate; opacity:.2;"></path><path d="M63.27,200.67l-.63,.18-14.98,4.29-.08,.02h0l-1.48-4.84-.52-3.03h0l-.19-1.09,1.21-2.11,6.92,.16,1.79,.12h.04l3.01,2.06,1.84,.68s1.36,1.81,2.14,1.9c.48,.05,.78,.95,.94,1.66Z" style="fill:#e6e6e6;"></path><polygon points="62.64 200.85 62.64 200.85 47.65 205.14 47.58 205.16 48.48 200.52 52.39 199.41 59.25 197.44 59.25 197.44 59.77 197.6 62.64 200.85" style="fill:#f5f5f5; isolation:isolate; opacity:.1;"></polygon><polygon points="59.25 197.44 52.39 199.41 48.48 200.52 48.45 200.54 46.61 194.12 53.53 194.28 55.31 194.39 56.05 196.52 59.25 197.44" style="fill:#f0f0f0; isolation:isolate;"></polygon><polygon points="53.11 205.11 52.13 205.82 51.2 205.66 51.73 205.14 53.11 205.11" style="fill:#f5f5f5; isolation:isolate;"></polygon><path d="M56.68,204.12l.89,.26s-.87,.67-1.07,.3c-.11-.2-.04-.45,.16-.56h.01Z" style="fill:#f5f5f5; isolation:isolate;"></path><path d="M48.51,206.23l-.02-.02h0l.02,.02Z" style="fill:#fff;"></path></g><g><path d="M219.39,39.62c-.98,.14-2.21,.32-2.3,.38-.15,.11-1.67,.94-1.67,.94l-1.74,.26s-.39,.11-.95,.28c-.56,.17-3.87,1.34-3.87,1.34l-1.82,.85-2.32-.24h0l-.16-.02-.19-.91h0l-.93-1.03-1.48-4.84-.52-3.03h0l-.19-1.09,1.21-2.11,6.92,.16,1.79,.12h.04l3.01,2.06,1.84,.68s1.36,1.81,2.14,1.9c.48,.04,.78,.94,.94,1.65,.11,.48,.16,.88,.16,.88l.1,1.78Z" style="fill:#e0e0e0;"></path><path d="M218.6,37.53c-1.04,.36-2.14,.73-2.42,.78-.38,.08-11.61,2.86-12.67,3.12l-.08,.02h0l-1.48-4.84-.52-3.03h0l-.19-1.09,1.21-2.11,6.92,.16,1.79,.12,.75,2.13,3.19,.93h0l.51,.14,2.86,3.25h0l.13,.42Z" style="fill:#e0e0e0; isolation:isolate; opacity:.2;"></path><path d="M204.54,43.41l-.18-.91c.11,.27,.23,.59,.35,.93l-.16-.03Z" style="fill:#fff; isolation:isolate; opacity:.2;"></path><path d="M219.11,36.94l-.63,.18-14.98,4.29-.08,.02h0l-1.48-4.84-.52-3.03h0l-.19-1.09,1.21-2.11,6.92,.16,1.79,.12h.04l3.01,2.06,1.84,.68s1.36,1.81,2.14,1.9c.48,.05,.78,.95,.94,1.66Z" style="fill:#e6e6e6;"></path><polygon points="218.48 37.13 218.48 37.13 203.5 41.42 203.42 41.44 204.33 36.8 208.23 35.68 215.09 33.72 215.09 33.72 215.61 33.88 218.48 37.13" style="fill:#f5f5f5; isolation:isolate; opacity:.1;"></polygon><polygon points="215.09 33.72 208.23 35.68 204.33 36.8 204.29 36.82 202.45 30.4 209.37 30.56 211.15 30.67 211.89 32.79 215.09 33.72" style="fill:#f0f0f0; isolation:isolate;"></polygon><polygon points="208.96 41.39 207.97 42.1 207.05 41.94 207.57 41.42 208.96 41.39" style="fill:#f5f5f5; isolation:isolate;"></polygon><path d="M212.52,40.4l.89,.26s-.87,.67-1.07,.3c-.11-.2-.04-.45,.16-.56h.01Z" style="fill:#f5f5f5; isolation:isolate;"></path><path d="M204.36,42.51l-.02-.02h0l.02,.02Z" style="fill:#fff;"></path></g></g><g id="freepik--Shadow--inject-54"><path d="M458.88,425.68c0,3.39-93.52,6.13-208.88,6.13s-208.88-2.75-208.88-6.13,93.52-6.13,208.88-6.13,208.88,2.75,208.88,6.13Z" style="fill:#f5f5f5;"></path></g><g id="freepik--Chocolates--inject-54"><g><path d="M443.22,212.98l-82.89,127.08-66.14-43.14,103.83-159.19,32.44,21.16-3.8,5.87-1.71,3.99s-3.79,4.26-3.86,4.57-1.07,3.01-1.07,3.01l-1.91,2.24s-.38,.56-.91,1.39c-.52,.82-3.4,5.9-3.4,5.9l-1.36,3.05,4.17,4.8,9.64,7.45,13,8.5,3.97,3.34Z" style="fill:#a24e3f;"></path><path d="M439.19,212.4l-81.95,125.66-63.05-41.12,103.83-159.19,29.53,19.26s-3.46,5.81-3.24,6.19l-2.29,2.3s-3.32,5.87-3.92,6.61c-.42,.54-11.74,17.4-11.74,17.4,0,0,7.36,3.99,7.78,4.14,.42,.15,11.55,9.5,11.55,9.5l4.86,2.7,4.66,3.51,3.99,3.05Z" style="fill:#fff; isolation:isolate; opacity:.2;"></path><polygon points="403.77 145.58 396.96 141.14 392.98 142.74 377.01 167.22 377.11 171.56 372.91 173.51 356.94 197.99 356.97 202.46 352.85 204.27 336.88 228.76 336.9 233.22 332.78 235.03 316.82 259.52 316.92 263.86 312.71 265.81 296.75 290.29 296.91 294.52 303.73 298.97 355.99 333.05 435.97 210.4 405.45 189.97 425.26 159.59 403.77 145.58" style="fill:#b97964;"></polygon><polygon points="425.26 159.59 417.5 158.66 401.53 183.15 405.45 189.97 425.26 159.59" style="fill:#fff; isolation:isolate; opacity:.1;"></polygon><polygon points="435.97 210.4 428.18 209.52 412.21 234 416.13 240.83 435.97 210.4" style="fill:#fff; isolation:isolate; opacity:.1;"></polygon><polygon points="405.21 190.34 403.7 193.55 428.18 209.52 435.97 210.4 405.21 190.34" style="fill:#fff; isolation:isolate; opacity:.3;"></polygon><polygon points="415.93 241.14 408.13 240.26 392.16 264.74 396.08 271.57 415.93 241.14" style="fill:#fff; isolation:isolate; opacity:.1;"></polygon><polygon points="385.16 221.08 383.65 224.29 408.13 240.26 415.93 241.14 385.16 221.08" style="fill:#fff; isolation:isolate; opacity:.3;"></polygon><polygon points="395.88 271.88 388.08 270.99 372.11 295.48 376.03 302.31 395.88 271.88" style="fill:#fff; isolation:isolate; opacity:.1;"></polygon><polygon points="365.12 251.82 363.6 255.03 388.08 270.99 395.88 271.88 365.12 251.82" style="fill:#fff; isolation:isolate; opacity:.3;"></polygon><polygon points="375.83 302.62 368.04 301.73 352.07 326.22 355.99 333.05 375.83 302.62" style="fill:#fff; isolation:isolate; opacity:.1;"></polygon><polygon points="345.06 282.55 343.55 285.77 368.04 301.73 375.83 302.62 345.06 282.55" style="fill:#fff; isolation:isolate; opacity:.3;"></polygon><polygon points="396.96 141.14 392.98 142.74 417.5 158.66 425.26 159.59 396.96 141.14" style="fill:#fff; isolation:isolate; opacity:.3;"></polygon><polygon points="405.19 190.36 397.43 189.43 381.47 213.91 385.38 220.74 405.19 190.36" style="fill:#fff; isolation:isolate; opacity:.1;"></polygon><polygon points="376.9 171.9 372.91 173.51 397.43 189.43 405.19 190.36 376.9 171.9" style="fill:#fff; isolation:isolate; opacity:.3;"></polygon><polygon points="385.13 221.13 377.36 220.19 361.4 244.68 365.31 251.5 385.13 221.13" style="fill:#fff; isolation:isolate; opacity:.1;"></polygon><polygon points="356.82 202.66 352.85 204.27 377.36 220.19 385.13 221.13 356.82 202.66" style="fill:#fff; isolation:isolate; opacity:.3;"></polygon><polygon points="365.07 251.89 357.3 250.96 341.33 275.44 345.25 282.27 365.07 251.89" style="fill:#fff; isolation:isolate; opacity:.1;"></polygon><polygon points="336.76 233.43 332.78 235.03 357.3 250.96 365.07 251.89 336.76 233.43" style="fill:#fff; isolation:isolate; opacity:.3;"></polygon><polygon points="344.99 282.66 337.24 281.72 321.27 306.2 325.19 313.03 344.99 282.66" style="fill:#fff; isolation:isolate; opacity:.1;"></polygon><polygon points="316.69 264.19 312.71 265.81 337.24 281.72 344.99 282.66 316.69 264.19" style="fill:#fff; isolation:isolate; opacity:.3;"></polygon><rect x="382.64" y="148.35" width="29.23" height="29.23" transform="translate(43.76 406.71) rotate(-56.89)" style="fill:#fff; isolation:isolate; opacity:.2;"></rect><rect x="362.58" y="179.12" width="29.23" height="29.23" transform="translate(8.88 403.86) rotate(-56.89)" style="fill:#fff; isolation:isolate; opacity:.2;"></rect><rect x="393.35" y="199.19" width="29.23" height="29.23" transform="translate(6.04 438.74) rotate(-56.89)" style="fill:#fff; isolation:isolate; opacity:.2;"></rect><rect x="342.51" y="209.88" width="29.23" height="29.23" transform="translate(-25.99 401.01) rotate(-56.89)" style="fill:#fff; isolation:isolate; opacity:.2;"></rect><rect x="373.28" y="229.94" width="29.23" height="29.23" transform="translate(-28.83 435.89) rotate(-56.89)" style="fill:#fff; isolation:isolate; opacity:.2;"></rect><rect x="322.45" y="240.65" width="29.23" height="29.23" transform="translate(-60.87 398.17) rotate(-56.89)" style="fill:#fff; isolation:isolate; opacity:.2;"></rect><rect x="353.22" y="260.71" width="29.23" height="29.23" transform="translate(-63.71 433.05) rotate(-56.89)" style="fill:#fff; isolation:isolate; opacity:.2;"></rect><rect x="302.39" y="271.42" width="29.23" height="29.23" transform="translate(-95.75 395.33) rotate(-56.89)" style="fill:#fff; isolation:isolate; opacity:.2;"></rect><rect x="333.16" y="291.48" width="29.23" height="29.23" transform="translate(-98.59 430.21) rotate(-56.89)" style="fill:#fff; isolation:isolate; opacity:.2;"></rect><path d="M443.22,212.98l-4.03-.58-3.98-3.02-4.66-3.51-4.86-2.7s-11.09-9.31-11.55-9.5c-.46-.19-7.78-4.14-7.78-4.14l6.1-.66,4.17,4.8,9.64,7.45,13,8.5,3.94,3.35Z" style="fill:#fff; isolation:isolate; opacity:.1;"></path><polygon points="412.36 183.87 411.9 185.83 410.56 186.63 410.66 185.43 412.36 183.87" style="fill:#fff; isolation:isolate; opacity:.1;"></polygon><path d="M415.78,178.73l1.41-.65s-.36,1.8-1.02,1.55c-.35-.13-.53-.51-.41-.87v-.03Z" style="fill:#fff; isolation:isolate; opacity:.1;"></path><path d="M413.18,192.06s1.27-.02,1.58,.33c.31,.35,.87,.91,.87,.91l-1.44-.26-1.01-.97Z" style="fill:#b97964;"></path><path d="M424,200.8l2.18,2,1.63,.77c-.36-.75-.89-1.42-1.54-1.93-.63-.54-1.44-.83-2.27-.84Z" style="fill:#b97964;"></path><path d="M426.04,164.59s-1.58,2.69-2.34,2.61c-.06-.63-.05-1.26,.04-1.88,.16-.38,1.45-1.74,2.3-.73Z" style="fill:#fff; isolation:isolate; opacity:.1;"></path><path d="M333,232.98s2.84-4.5,2.91-5.79c.06-1.29-2.4-4.32-2.4-4.32l4.37,1.3s-.59,3.03,1.84,4.38c0,0-1.09,1.66,.05,2.85,1.14,1.19,6.26-.53,6.26-.53,0,0,4,3.48,6.14,2.61,.85-.23,1.36-1.1,1.14-1.96-.06-.23-.17-.44-.33-.62l4.13,.09s-1.32,3.14-1.18,4.8c0,0-2.91,.35-2.88,1.42,.03,1.08,2.47,3.74,2.47,3.74-.72,.26-1.18,.97-1.12,1.73-.08,1.47,3.95,4.88,3.95,4.88l.41,3.62s5.58,2.24,5.33,.01c0,0,8.86,.92,11.12-.39,0,0,1.28,5.51,2.67,5.55,0,0-1.71,.28-1.93,1.35-.22,1.07,2.87,.87,2.87,.87-.46,.47-.48,1.22-.04,1.71,.77,.94,3.74,.68,3.74,.68,0,0,.61,2.27,2.55,2.52,1.94,.26,5.65-5.19,5.65-5.19,0,0,1.15,1.44,1.91,1.07,.76-.37,2.39-3.66,2.39-3.66l2.18-.67s-3.38,5.46-2.93,6.62c0,0-3.5,1.37-2.71,4.15,.8,2.78,5.66-.15,5.66-.15,0,0,4.44,1.7,6.34,.15l6.87,.98c-.6,.63-.84,1.51-.66,2.36,.37,1.29,2.36,1.71,2.36,1.71l.55,2.63s-1.58-3.14-3.27-1.62c0,0-3.27-3-5.68,2.04s-38.45,14.94-38.74,14.58c-.29-.36-35.63-36.63-35.63-36.63l3.62-18.88Z" style="fill:#FFC100;"></path><path d="M412.59,273.4c-.11-.21-1.54-2.99-3.15-1.53,0,0-3.27-3-5.68,2.04s-38.46,14.94-38.74,14.59c-.28-.35-35.63-36.63-35.63-36.63l3.61-18.9s2.84-4.5,2.91-5.79c.06-1.29-2.4-4.31-2.4-4.31l4.37,1.29s-.59,3.03,1.79,4.38c0,0-1.08,1.66,.05,2.85,1.13,1.19,6.26-.53,6.26-.53,0,0,3.19,2.77,5.39,2.74,.25,0,.5-.04,.73-.13,.85-.23,1.36-1.1,1.14-1.96-.06-.23-.17-.44-.33-.62l4.14,.09s-1.32,3.14-1.18,4.8c0,0-2.91,.35-2.88,1.42,.03,1.07,2.47,3.74,2.47,3.74h0c-.07,.02-.13,.05-.2,.09h0c-.53,.35-.85,.95-.83,1.59-.08,1.47,3.95,4.88,3.95,4.88l.41,3.64s5.58,2.23,5.33,0c2.69,.28,5.39,.36,8.09,.25l.7-.06h0c.78-.05,1.55-.24,2.26-.58,0,0,1.28,5.48,2.67,5.56h0s-.06,0-.09,0h-.09c-.47,.11-1.58,.47-1.69,1.31-.18,1.06,2.72,.88,2.86,.88-.46,.48-.47,1.22-.03,1.71,.77,.95,3.73,.68,3.73,.68,0,0,.62,2.27,2.56,2.52,1.94,.25,5.65-5.19,5.65-5.19,0,0,1.15,1.44,1.91,1.07,.76-.37,2.39-3.66,2.39-3.66l2.18-.67s-3.38,5.45-2.93,6.61c0,0-3.51,1.37-2.71,4.15,.09,.38,.33,.72,.66,.93,1.57,.99,5-1.08,5-1.08,0,0,4.45,1.7,6.35,.15l6.87,.99c-.59,.63-.84,1.5-.67,2.35,.38,1.29,2.37,1.71,2.37,1.71l.41,2.65Z" style="fill:#fff; isolation:isolate; opacity:.4;"></path><path d="M351.43,233.61c-.87,.24-1.72,.54-2.55,.9-.46-.78-1.12-1.42-1.93-1.85-1.25-.58-5.75,1.35-5.75,1.35-.51-.85-3.77-2.22-4.07-2.3-.29-.08,.65-1.54,.18-3.62-.47-2.08-3.8-5.23-3.8-5.23l4.37,1.29s-.59,3.03,1.79,4.38c0,0-1.08,1.66,.05,2.85,1.14,1.19,6.26-.53,6.26-.53,0,0,3.24,2.78,5.44,2.75Z" style="fill:#fff; isolation:isolate; opacity:.3;"></path><path d="M372.24,251.37c-2.03,.21-4.01,.72-5.88,1.54-.59-1.04-8.11-.35-8.11-.35-.42-1.16-3.09-2.01-3.09-2.01,.51-.71,.84-1.53,.98-2.4,.16-1.3-2.79-2.85-2.94-4.57-.13-1.36,1.41-2.25,2.05-2.56-.53,.35-.85,.95-.83,1.59-.08,1.47,3.95,4.88,3.95,4.88l.41,3.64s5.58,2.23,5.33,0c2.7,.28,5.42,.36,8.13,.24Z" style="fill:#fff; isolation:isolate; opacity:.3;"></path><path d="M386.62,265.4c-.85,.32-2.01,2.99-2.11,3.24,.45-1.78-1.49-3.05-1.49-3.05,0,0,.69-1.4-.04-2.04-.73-.64-4.46-.77-4.46-.77-.23-.75-.63-1.44-1.17-2.02-.51-.78-1.32-1.31-2.24-1.47-2.05-1.85,1.62-2.74,2.51-2.92-.47,.11-1.58,.47-1.69,1.31-.18,1.06,2.72,.88,2.86,.88-.46,.48-.47,1.22-.03,1.71,.77,.95,3.73,.68,3.73,.68,0,0,.62,2.27,2.56,2.52,1.94,.25,5.65-5.19,5.65-5.19-.6,2.79-3.82,6.84-3.82,6.84,0,0,.66-.05-.25,.27Z" style="fill:#fff; isolation:isolate; opacity:.3;"></path><path d="M412.59,273.4c-.11-.21-1.54-2.99-3.15-1.53-1.03-2.34-3.56-3.63-6.06-3.09-.44-1.45-4.3-.92-4.3-.92-2.27-1.13-8.43,1.28-6.87-1.17,1.57,.99,5-1.08,5-1.08,0,0,4.45,1.7,6.35,.15l6.87,.99c-.59,.63-.84,1.5-.67,2.35,.38,1.29,2.37,1.71,2.37,1.71l.47,2.59Z" style="fill:#fff; isolation:isolate; opacity:.3;"></path><path d="M406.74,272.26l-45.01,69.02c-.25,.39-.69,.62-1.15,.61-.26,0-.51-.07-.72-.22l-64.89-42.32c-1.02-.66-1.58-1.83-1.45-3.04l.45-4.14c.05-.51,.23-1,.51-1.43l40.2-61.65,1.77,3.03c-.85,1.32-.46,3.08,.86,3.93,.02,.02,.05,.03,.07,.05,.9,.56,1.96,.84,3.02,.8,.91,0,1.81-.16,2.66-.46h-.05l-.13-.06-.11-.04-.36-.16s-.1-.05-.16-.07c-.54-.26-1.08-.56-.65-.61,.75-.08,6.03-1.76,6.03-1.76-.72,3.23,.24,6.6,2.54,8.98,.24,.25,.4,.39,.4,.39h0c0,.11-.28,1.02-.55,2.22-.51,2.3-1.05,5.64-.11,6.25,.97,.47,2.05,.67,3.12,.57,.61,0,1.22-.05,1.82-.13,.03,.02,.06,.05,.09,.08,2.1,1.9,12.48,3.6,12.48,3.6,0,0,0,.25,.07,.65,.19,1.49,.73,5.12,1.69,5.72,1.22,.83,7.33-.09,7.33-.09,.38,.94,5.07,2.96,5.07,2.96h0c.06,1.39,.33,2.77,.79,4.09h0c.37,1.22,1.22,2.24,2.35,2.82,3,1.26,6.43-2.92,6.43-2.92,2.26,1.34,5.42-.84,5.42-.84,3.75,3.75,9.39,4.11,10.08,4.18h.11Z" style="fill:#FFC100;"></path><path d="M406.74,272.26l-45.01,69.02-7.32-9.95c-1.25-1.71-1.31-4.02-.17-5.8l36.94-56.64c2.26,1.34,5.42-.84,5.42-.84,4,4.04,10.15,4.21,10.15,4.21Z" style="isolation:isolate; opacity:.1;"></path><path d="M360.58,341.89c-.26,0-.51-.07-.72-.22l-64.89-42.31c-1.01-.67-1.57-1.84-1.45-3.05l.45-4.14c.05-.51,.23-1,.51-1.43l54.84,35.8c1.19,.78,2.21,1.79,3,2.98l8.27,12.38Z" style="isolation:isolate; opacity:.2;"></path><path d="M343.04,236.42l-.6-.25,.6,.25Z" style="isolation:isolate; opacity:.2;"></path><path d="M350.05,245.31c-1.81-.57-5.03-1.47-5.92-.91-.48-2.8-1.77-5.41-3.69-7.5,.91,0,1.81-.16,2.66-.46,1.59,1.25,2.37,3.26,2.03,5.25,0,0,3.76,.2,5.07,1,.17,.09,.31,.22,.4,.39h0c-.03,.13-.28,1.03-.55,2.23Z" style="isolation:isolate; opacity:.2;"></path><path d="M364.63,256.73c-1.33,1.09-2.29,2.57-2.76,4.23-1.69-2.25-7.26-3-7.26-3,.52-1.83-.76-4.49-1.53-5.83,.61,0,1.22-.05,1.82-.13,.03,.02,.06,.05,.09,.08,.87,.88,1.69,4.33,1.69,4.33,1.79-.26,3.6,.25,4.99,1.41,0,0,1.06-2.31,5.8-2.14-.99,.21-1.95,.57-2.84,1.05Z" style="isolation:isolate; opacity:.2;"></path><path d="M406.74,272.26s-5.27,.45-6.69,2.44c-1.08-1.33-2.53-2.31-4.17-2.82,0,0,4.03,1.96,3.84,4.04,1.47-.35,3.01-.23,4.42,.34l2.61-3.99Z" style="isolation:isolate; opacity:.2;"></path><path d="M382.4,269.01c-2.25-1.35-5.78-.19-5.78-.19-.3-1.62-.81-3.19-1.52-4.67,.96,.4,2.07,2.8,2.07,2.8,1.44-1.66,4.43-2.03,4.43-2.03h0c.06,1.4,.33,2.78,.79,4.09Z" style="isolation:isolate; opacity:.2;"></path><path d="M335.69,325.92l-25.13-16.37-.16-8.38,38.83-59.55c.27,.38,.56,.74,.88,1.09,.24,.25,.4,.39,.4,.39h0c0,.11-.28,1.02-.55,2.22-.51,2.3-1.05,5.64-.11,6.25,.97,.47,2.05,.67,3.12,.57,.61,0,1.22-.05,1.82-.13,.03,.02,.06,.05,.09,.08,.76,.69,2.59,1.35,4.63,1.9,2.23,.62,4.7,1.13,6.27,1.42,.96,.18,1.58,.28,1.58,.28,0,0,0,.25,.07,.65,.19,1.49,.73,5.12,1.69,5.72,.51,.33,1.87,.38,3.28,.3l-36.19,55.63-.53,7.95Z" style="fill:#fff; isolation:isolate; opacity:.6;"></path><path d="M341.11,293.17l-3.41,.87c.54,1.62,.29,3.4-.66,4.81-1.69,2.6-5.17,3.34-7.77,1.65-2.6-1.69-3.34-5.17-1.65-7.77h0c.92-1.43,2.43-2.38,4.12-2.57l-.6-3.49c-2.72,.38-5.12,1.98-6.52,4.34-2.98,4.56-2.03,10.02,2.39,12.9,4.42,2.88,9.79,1.53,12.79-2.99,1.6-2.25,2.08-5.11,1.3-7.76Z" style="fill:#263238;"></path><path d="M351.52,282.37l2.21-3.39-14.65-9.56-2.21,3.39,5.78,3.77-4.35,6.66-5.78-3.74-2.21,3.39,14.65,9.56,2.21-3.4-6.01-3.91,4.34-6.66,6.02,3.9Z" style="fill:#263238;"></path><path d="M358.53,255.61c-4.38-2.86-9.81-1.53-12.78,3.08-2.98,4.61-2,10.12,2.35,12.96s9.8,1.53,12.78-3.07c2.99-4.6,2.07-10.12-2.35-12.97Zm-8.24,12.6c-2.49-1.71-3.12-5.12-1.41-7.61s5.12-3.12,7.61-1.41c2.45,1.68,3.1,5.01,1.48,7.5-1.55,2.51-4.83,3.29-7.34,1.74-.12-.07-.23-.15-.34-.23Z" style="fill:#263238;"></path><path d="M359.6,253.98c1.84,1.24,4.07,1.75,6.27,1.42-1.56-.29-4.04-.8-6.27-1.42Z" style="fill:#b97964;"></path></g><g id="freepik--freepik--chocolate-pieces--inject-58--inject-54"><path d="M309.9,381.45l-1.94-1.46,2.29,1.24-.35,.21Z" style="fill:#fff; isolation:isolate; opacity:.2;"></path><g><path d="M66.63,254.11s3.26,1.32,3.64,.82c.39-.5,1.59-.42,1.59-.42,0,0,6.66,4.08,7.02,4.08s3.96-1.02,3.96-1.02l3.06-.75,3.83-1.98,2.31-3.5,4.78,.5,4.26-1.5s5.47,2.66,5.1,2.59c-.37-.07-24.91,17.19-25.76,17.42-.85,.22-16.08-2.75-16.08-2.75l2.28-13.5Z" style="fill:#b97964;"></path><path d="M123.6,260.85l-4.8,7.53-2.15,5.16s-4.8,5.52-4.89,5.91c-.09,.39-1.35,3.88-1.35,3.88l-2.42,2.9s-.49,.72-1.14,1.79c-.65,1.06-4.3,7.64-4.3,7.64l-1.72,3.93-4.08,2.92-.3,.2-1.58-1.19h0l-2.95-.35-9.19-5.66-7-5.63-12.86-6.57-2.98-2.77-4.67-2.68-.76-1.15,.68-1.02,1.48-2.33h0l11.32-17.76c.55,.47,1.15,.84,1.62,.71,.91-.15,1.84-.13,2.75,.05,0,0,4.08,4.87,4.74,5.34,.65,.47,3.85-.58,4.57-.27,.72,.32,2.04-3.54,2.89-3.76,.85-.21,4.13,.06,5.91-.59,1.78-.65,2.31-3,2.31-3l2.93-.37h0c.78-.38,1.58-.72,2.39-1.02,.53-.12,2.89-.76,3.06-.81h0l1.66-1.57,3.34-.47h0l13.64,8.7,3.84,2.31Z" style="fill:#b97964;"></path><path d="M119.83,258.45s-4.38,7.5-4.08,7.98l-2.94,3.06s-4.21,7.59-4.93,8.56c-.51,.65-14.57,21.07-15.9,22.98l-.09,.14-9.19-5.66-6.97-5.64-12.86-6.57-2.98-2.77-4.67-2.68-.76-1.15,.68-1.02,1.48-2.33h0l11.32-17.76c.55,.47,1.15,.84,1.62,.71,.91-.15,1.84-.13,2.75,.05,0,0,4.08,4.87,4.74,5.34,.65,.47,3.85-.58,4.57-.27,.72,.32,2.04-3.54,2.89-3.76,.85-.21,4.13,.06,5.91-.59,1.78-.65,2.31-3,2.31-3l2.93-.37h0c.78-.38,1.58-.72,2.39-1.02,.53-.12,2.89-.76,3.06-.81h0l1.66-1.57,3.34-.47h0l13.71,8.61Z" style="fill:#fff; isolation:isolate; opacity:.2;"></path><path d="M116.93,261.83h0l-24.95,39.13-.09,.14-9.19-5.66-6.96-5.56-12.86-6.57-2.98-2.77-4.67-2.68-.07-2.22-.11-3.35h0l11.59-18.17c.41,.51,.85,.98,1.34,1.42,.55,.47,1.15,.84,1.62,.71,.91-.15,1.84-.13,2.75,.05,0,0,4.08,4.87,4.74,5.34,.65,.47,3.85-.58,4.57-.27,.72,.32,2.04-3.54,2.89-3.76,.85-.21,4.13,.06,5.91-.59s2.31-3,2.31-3l2.93-.37h0c.78-.38,1.58-.72,2.39-1.02,.53-.12,2.89-.76,3.06-.81h0l15.79,9.99Z" style="fill:#b97964;"></path><polygon points="116.93 261.84 106.94 260.73 86.75 292.4 91.87 301.13 116.93 261.84" style="fill:#fff; isolation:isolate; opacity:.1;"></polygon><path d="M116.93,261.83h0l-9.96-1.1-11.23-7.15c.78-.38,1.58-.72,2.39-1.02,.53-.12,2.89-.76,3.06-.81h0l15.74,10.08Z" style="fill:#fff; isolation:isolate; opacity:.3;"></path><path d="M106.89,260.79l-15.48,24.29-4.67,7.32v.07l-30.11-19.18-1.6-1.02,11.59-18.17c.41,.51,.85,.98,1.34,1.42,.55,.47,1.15,.84,1.62,.71,.91-.15,1.84-.13,2.75,.05,0,0,4.08,4.87,4.74,5.34,.65,.47,3.85-.58,4.57-.27,.72,.32,2.04-3.54,2.89-3.76,.85-.21,4.13,.06,5.91-.59,1.78-.65,2.31-3,2.31-3l2.93-.37,11.21,7.16Z" style="fill:#fff; isolation:isolate; opacity:.2;"></path><polygon points="100.68 293.19 100.11 295.72 98.41 296.77 98.51 295.21 100.68 293.19" style="fill:#fff; isolation:isolate; opacity:.1;"></polygon><path d="M105,286.54l1.8-.85s-.44,2.31-1.28,2.04c-.46-.15-.71-.65-.55-1.11,0-.03,.02-.06,.03-.08Z" style="fill:#fff; isolation:isolate; opacity:.1;"></path></g><g><path d="M247.9,92.94l-5.75-9.27-4.52-5.09s-3.5-8.2-3.9-8.5c-.4-.3-3.53-3.54-3.53-3.54l-1.91-4.18s-.53-.93-1.36-2.21c-.39-.6-1.81-2.65-3.17-4.58l4.79-4.49h0l.68-.03h0l12.66-.43,2.13-.06,3.89-.84,3.65,3.41,6.28-.3,11.85,5.69c-.24,2.28,2.08,4.13,2.08,4.13l-1.15,3.4s0,.05,.02,.07c-.02,.42-.03,2.59-.15,3.16-.13,.58-.69,3.56-.74,3.8h0l.84,2.65-1.24,3.92h0l-16.78,10.37-4.66,2.89Z" style="fill:#b97964;"></path><path d="M245.92,81.34l-1.76-4.81s-6.12-8.66-6.79-9.95c-.24-.48-4.56-8.08-8.79-15.49h0l.68-.03h0l12.66-.43,2.1-.05,3.89-.84,3.65,3.41,6.28-.3,11.85,5.69c-.24,2.28,2.08,4.13,2.08,4.13l-1.15,3.4s0,.05,.02,.07c-.02,.42-.03,2.59-.15,3.16-.13,.58-.69,3.56-.74,3.8h0l.84,2.65-1.24,3.92h0l-16.78,10.37s-5.96-8.77-6.64-8.71Z" style="fill:#fff; isolation:isolate; opacity:.2;"></path><path d="M250.36,85.09h0l-12.24-19.74-8.86-14.27h0l12.66-.43,2.1-.06,3.89-.84,3.65,3.41,6.28-.3,11.85,5.69c-.24,2.28,2.08,4.13,2.08,4.13l-1.15,3.4s0,.05,.02,.07c-.02,.42-.03,2.59-.15,3.16-.13,.58-.69,3.56-.74,3.8h0l-19.38,11.98Z" style="fill:#b97964;"></path><polygon points="250.34 85.09 238.11 65.33 229.26 51.06 241.92 50.62 256.83 74.69 250.35 85.07 250.34 85.09" style="fill:#fff; isolation:isolate; opacity:.1;"></polygon><path d="M250.36,85.09h0l6.49-10.37,13.76-8.57c-.02,.42-.03,2.59-.15,3.16-.13,.58-.7,3.57-.74,3.8h0l-19.35,11.98Z" style="fill:#fff; isolation:isolate; opacity:.3;"></path><path d="M256.8,74.61l-14.87-23.99,2.08-.04,3.89-.84,3.65,3.41,6.28-.3,11.85,5.69c-.24,2.28,2.08,4.13,2.08,4.13l-1.15,3.4-13.81,8.53Z" style="fill:#fff; isolation:isolate; opacity:.2;"></path><path d="M242.73,82.87s-2.76-4.03-2.21-5.08c.93,.32,1.82,.76,2.65,1.31,.5,.5,1.53,3.25-.44,3.77Z" style="fill:#fff; isolation:isolate; opacity:.1;"></path></g><g><path d="M317.95,67.07v-14.56h12.98s-2.09,11.78-3.42,11.78c-3.24,.74-6.43,1.67-9.56,2.77Z" style="fill:#b97964;"></path><path d="M317.95,52.54l6.49,5.32s-2.29,7.52-6.49,9.17v-14.49Z" style="fill:#fff; isolation:isolate; opacity:.2;"></path></g><g><path d="M126.35,336.99v-7.87h7.05s-1.12,6.39-1.86,6.39c-1.76,.39-3.49,.89-5.19,1.48Z" style="fill:#b97964;"></path><path d="M126.35,329.12l3.52,2.88s-1.24,4.08-3.52,4.98v-7.86Z" style="fill:#fff; isolation:isolate; opacity:.2;"></path></g><g><path d="M126.1,210.66l7.54-2.33,2.09,6.74s-6.45,.81-6.66,.11c-.9-1.56-1.9-3.07-2.98-4.52Z" style="fill:#b97964;"></path><path d="M133.65,208.33l-1.71,4.27s-4.28,0-5.84-1.89l7.54-2.38Z" style="fill:#fff; isolation:isolate; opacity:.2;"></path></g><g><path d="M423.5,280.25l9.28,2.13s-2.81,7.92-5.54,8.23c-2.43,.16-4.87,.16-7.3,0v-5.12l3.56-5.24Z" style="fill:#b97964;"></path><polygon points="419.94 285.49 424.73 286.87 426.35 288.7 432.76 282.37 423.5 280.25 419.94 285.49" style="fill:#fff; isolation:isolate; opacity:.2;"></polygon></g><g><path d="M174.82,67.32l-1.36,9.44s-8.13-2.1-8.71-4.79c-.38-2.41-.59-4.84-.63-7.27l5.08-.44,5.63,3.06Z" style="fill:#b97964;"></path><polygon points="169.29 64.24 168.34 69.13 166.65 70.9 173.5 76.74 174.82 67.32 169.29 64.24" style="fill:#fff; isolation:isolate; opacity:.2;"></polygon></g><g><path d="M280.06,198.24l9.28-2.03s.87,8.35-1.46,9.81c-2.12,1.19-4.32,2.24-6.59,3.14l-2.19-4.62,.96-6.3Z" style="fill:#b97964;"></path><polygon points="279.1 204.51 284.02 203.69 286.26 204.64 289.34 196.17 280.06 198.24 279.1 204.51" style="fill:#fff; isolation:isolate; opacity:.2;"></polygon></g><g><g><path d="M419.87,373.73c-1.94-1.69-4.42-3.81-4.69-3.88-.47-.11-4.73-1.68-4.73-1.68l-3.5-2.98s-.88-.6-2.18-1.41c-1.29-.81-9.26-5.33-9.26-5.33l-4.78-2.13-3.51-4.98h0l-.25-.35,1.47-1.93h0l.45-3.6,7-11.2,5.07-6.22h0l1.83-2.24,6.22-1.25,11.54,13.91,2.84,3.73,.06,.07,1.11,9.45,1.82,4.78s-1.24,5.78-.06,7.47c.73,1.01-.51,3.15-1.64,4.69-.76,1.05-1.46,1.83-1.46,1.83l-3.34,3.24Z" style="fill:#b97964;"></path><path d="M422.64,368.59c-2.49-1.43-5.1-2.98-5.69-3.44-.8-.61-25.53-17.97-27.86-19.61l-.17-.11h0l7-11.2,5.07-6.22h0l1.83-2.24,6.22-1.25,11.54,13.91,2.84,3.74-2.91,5.12,3.65,7.88h0l.59,1.24-1.49,11.2h0l-.6,.98Z" style="fill:#fff; isolation:isolate; opacity:.2;"></path><path d="M386.94,350.98l1.47-1.92c-.35,.67-.77,1.46-1.24,2.28l-.22-.36Z" style="fill:#fff; isolation:isolate; opacity:.2;"></path><path d="M424.67,368.59l-1.44-.93-34.14-22.16-.17-.11h0l7-11.2,5.07-6.23h0l1.83-2.24,6.22-1.24,11.54,13.91,2.84,3.74,.06,.07,1.11,9.45,1.82,4.78s-1.24,5.78-.06,7.47c.71,1.03-.54,3.17-1.67,4.71Z" style="fill:#b97964;"></path><polygon points="423.22 367.67 423.22 367.68 389.08 345.51 388.91 345.39 399.6 339.22 408.49 345 424.12 355.14 424.13 355.16 424.72 356.44 423.22 367.67" style="fill:#fff; isolation:isolate; opacity:.1;"></polygon><polygon points="424.12 355.14 408.49 345 399.6 339.22 399.52 339.18 409 324.55 420.54 338.47 423.38 342.15 420.47 347.26 424.12 355.14" style="fill:#fff; isolation:isolate; opacity:.2;"></polygon><polygon points="398.5 356.21 395.42 355.49 394.15 353.39 396.06 353.54 398.5 356.21" style="fill:#fff; isolation:isolate; opacity:.1;"></polygon><path d="M406.56,361.54l1.02,2.2s-2.81-.56-2.43-1.58c.2-.56,.82-.84,1.37-.64h.03Z" style="fill:#fff; isolation:isolate; opacity:.1;"></path></g><polygon points="402.8 325.76 409 324.55 400.96 328.01 400.96 328 402.8 325.76" style="fill:#fff;"></polygon></g></g></g><g id="freepik--Speech_Bubble--inject-54"><g><g><path d="M338.4,103.96c-17.69-13.69-43.13-10.45-56.82,7.24-10.57,13.66-11,31.91-2.53,45.83l-3.54,11.64,12.81-1.09c.18,.14,.33,.3,.51,.44,17.69,13.69,43.13,10.44,56.82-7.25,13.69-17.69,10.44-43.13-7.24-56.82Z" style="fill:#FFC100;"></path><path d="M338.4,103.96c-17.69-13.69-43.13-10.45-56.82,7.24-10.57,13.66-11,31.91-2.53,45.83l-3.54,11.64,12.81-1.09c.18,.14,.33,.3,.51,.44,17.69,13.69,43.13,10.44,56.82-7.25,13.69-17.69,10.44-43.13-7.24-56.82Z" style="fill:#fff; opacity:.7;"></path><path d="M359.24,135.81h-.01c-.14,0-.24-.12-.24-.26,.68-13.01-5.73-26.32-16.33-33.9-.11-.08-.14-.24-.06-.35,.08-.11,.24-.14,.35-.06,10.74,7.68,17.23,21.15,16.54,34.33,0,.13-.12,.24-.25,.24Z" style="fill:#FFC100;"></path><path d="M357.61,147.71s-.06,0-.09-.02c-.13-.05-.19-.2-.14-.33,.75-1.82,1.12-3.82,1.08-5.78,0-.14,.11-.25,.24-.26,.15,.01,.25,.11,.26,.24,.04,2.03-.34,4.1-1.12,5.98-.04,.1-.13,.15-.23,.15Z" style="fill:#FFC100;"></path></g><path d="M331.32,124.43c-2.77-2.23-5.8-2.25-8.76-1.36-2.31,.69-3.71,2.25-5.39,4.16-.78,.88-1.57,2.31-2.19,3.86-.62-1.55-1.41-2.98-2.19-3.86-1.68-1.91-3.08-3.46-5.39-4.16-2.96-.89-5.99-.87-8.76,1.36-2.6,2.1-3.02,5.96-2.25,9.21,.77,3.25,2.91,6.55,5,8.96,4.39,5.04,8.28,8.86,13.58,11.61,6.57-3.76,9.19-6.57,13.58-11.61,2.09-2.41,4.23-5.71,5-8.96,.77-3.25,.35-7.11-2.25-9.21Z" style="fill:#FFC100;"></path></g></g><g id="freepik--Character--inject-54"><g><g><polygon points="308.06 439.16 332.79 444.98 340.13 425.24 318.42 413.68 308.06 439.16" style="fill:#eec1bb;"></polygon><path d="M284.3,391.78c-.94,1.54-43.09,32.72-43.09,32.72l16.62,14.66,54.32-23.69-27.86-23.69Z" style="fill:#eec1bb;"></path><g><path d="M235.7,326.56l15.73,18.78c24.86-.85,107.96-12.6,110.51,24.06-1.89,25.51-45.94,48.89-90.93,66.32-.32,.12-25.17-15.05-25.34-14.64-.39,.9,2.92-2.4-2.55,2.11-.9,.75-33.08,3.39-40.99,2.48-22.32-2.55-34.42-18.7-32.59-41.69,1.06-13.32,2.09-30,7.66-47.89l58.5-9.54Z" style="fill:#263238;"></path><path d="M187.06,350.93l-8.69,32.2s65.55-18.85,106.36,8.9c0,0,41.29-16.73,49.23-27.22-44.72,34.65-88.66,3.64-88.66,3.64l-58.24-17.52Z" style="isolation:isolate; opacity:.2;"></path><path d="M325.6,416.45s-90.56-58.33-120.44-56.41c-29.88,1.92-40.35,37.6-22.14,56.26,13,13.33,39.97,8.34,39.97,8.34,0,0-20.07-5.09-17.83-13.6,2.24-8.51,10.99,3.38,10.99,3.38,0,0,54.41,24.48,102.06,30.11l7.39-28.08Z" style="fill:#263238;"></path><path d="M242.65,422.35l-43.01-22.59s21.3,18.64,41.2,27.66c20.06,9.09,30.17,6.71,30.17,6.71-1.11,.89-28.36-11.77-28.36-11.77Z" style="isolation:isolate; opacity:.2;"></path><polygon points="284.3 391.78 314.18 409.4 317.01 408.73 289.25 390.12 284.3 391.78" style="isolation:isolate; opacity:.2;"></polygon></g><g><path d="M336.82,421.98l-4.25,5.57c-.96,1.26-1.11,2.98-.5,4.61,2.64,7.04-1.13,8.01-8.57,7.9-1.99,1.99,.51,4.82,1.16,5.6l14.38,17.39c1.19,1.47,3.28,1.89,4.66,.94,.25-.17,.46-.37,.63-.61,5.16-6.76,7.6-9.96,14.02-18.37l19.63-25.73c5.35-7.01-1.02-15.02-5.92-11.37-13.24,10.48-23.47,15.39-30.92,16.1-1.34,.17-1.33-1.03-4.32-2.01Z" style="fill:#263238;"></path><path d="M351.02,413.66c-.04-.95-.56-1.89-1.39-2.53-.41-.39-.99-.54-1.48-.4-2.76,.66-4.3,10.47-4.45,11.58-.03,.11,0,.24,.07,.35,.14,.2,.41,.27,.6,.16,1.77-1.36,3.37-2.91,4.76-4.63,1.15-1.21,1.82-2.8,1.89-4.53Zm-2.59-2.04c.21-.06,.46,0,.62,.18,.58,.48,.95,1.16,1.01,1.85,.16,2.61-3.34,5.99-5.35,7.7,.73-4,2.2-9.36,3.71-9.74Z" style="fill:#FFC100;"></path><path d="M344.64,422.64c.58-2.85-.06-10.23-2.35-11.58-.47-.3-1.21-.42-2.07,.41-3.42,3.43,3.28,11.06,3.62,11.31,.11,.14,.28,.22,.45,.19,.08-.05,.14-.13,.17-.22l.19-.12Zm-3.86-10.55c.62-.65,.92-.42,1.03-.34,1.44,.77,2.32,6.44,1.98,9.76-1.49-1.87-5.06-6.76-3.22-9.18l.22-.24Z" style="fill:#FFC100;"></path><path d="M344.67,429.5c-.09,0-.19-.05-.23-.15-1.15-2.54-1.12-5.39,.08-7.61,.07-.12,.22-.17,.34-.1,.12,.07,.17,.22,.1,.34-1.13,2.09-1.15,4.77-.07,7.17,.06,.12,0,.27-.12,.33-.03,.02-.07,.02-.1,.02Z" style="fill:#FFC100;"></path><path d="M350.33,428.32c-.09,0-.19-.05-.23-.15-1.15-2.54-1.12-5.39,.08-7.61,.06-.12,.22-.17,.34-.1,.12,.07,.17,.22,.1,.34-1.13,2.09-1.15,4.76-.07,7.17,.06,.12,0,.27-.12,.33-.03,.02-.07,.02-.1,.02Z" style="fill:#FFC100;"></path><path d="M356.15,425.93c-.09,0-.19-.05-.23-.15-1.15-2.54-1.12-5.39,.08-7.61,.06-.12,.22-.17,.34-.1,.12,.07,.17,.22,.1,.34-1.13,2.09-1.15,4.77-.07,7.17,.06,.12,0,.27-.12,.33-.03,.02-.07,.02-.1,.02Z" style="fill:#FFC100;"></path></g><g><path d="M266.1,437.13l-5.09-4.82c-1.15-1.09-2.86-1.43-4.56-1.01-7.34,1.81-7.88-2.01-6.93-9.35-1.77-2.19-4.87-.04-5.73,.52l-19.01,12.24c-1.6,1.01-2.25,3.02-1.46,4.5,.14,.26,.32,.5,.54,.69,6.18,5.85,9.1,8.62,16.79,15.91l23.52,22.28c6.41,6.07,15.13,.69,12.03-4.57-8.99-14.26-12.74-24.91-12.61-32.35-.02-1.34,1.18-1.19,2.5-4.04Z" style="fill:#263238;"></path><path d="M272.81,452.1c.96,.07,1.96-.34,2.69-1.08,.43-.36,.66-.91,.57-1.42-.35-2.8-9.98-5.43-11.08-5.7-.11-.04-.24-.03-.36,.03-.21,.12-.32,.38-.23,.57,1.16,1.91,2.53,3.65,4.09,5.22,1.08,1.27,2.59,2.11,4.31,2.38Zm2.33-2.33c.04,.21-.06,.45-.25,.59-.55,.52-1.26,.81-1.96,.79-2.63-.13-5.61-3.97-7.1-6.15,3.92,1.17,9.11,3.23,9.32,4.76Z" style="fill:#FFC100;"></path><path d="M264.55,444.78c2.79,.9,10.24,1.09,11.85-1.01,.35-.43,.56-1.14-.18-2.09-3.05-3.76-11.42,1.99-11.72,2.3-.15,.09-.25,.26-.25,.42,.04,.08,.11,.15,.2,.19l.09,.2Zm10.99-2.63c.57,.69,.32,.96,.23,1.05-.93,1.33-6.7,1.57-9.98,.85,2.04-1.26,7.33-4.24,9.54-2.14l.21,.24Z" style="fill:#FFC100;"></path><path d="M265.31,445.23s-.1-.01-.14-.04c-1.96-1.35-4.64-1.67-7.16-.87-.13,.04-.27-.03-.31-.16-.04-.13,.03-.27,.16-.31,2.67-.85,5.51-.5,7.59,.94,.11,.08,.14,.23,.06,.35-.05,.07-.13,.11-.21,.11Z" style="fill:#FFC100;"></path><path d="M265.86,450.95s-.1-.01-.14-.04c-1.96-1.35-4.64-1.67-7.16-.88-.12,.04-.27-.03-.31-.16-.04-.13,.03-.27,.16-.31,2.67-.85,5.51-.5,7.59,.94,.11,.08,.14,.23,.06,.35-.05,.07-.13,.11-.21,.11Z" style="fill:#FFC100;"></path><path d="M267.59,456.97s-.1-.01-.14-.04c-1.96-1.35-4.63-1.68-7.16-.88-.12,.04-.27-.03-.31-.16-.04-.13,.03-.27,.16-.31,2.67-.85,5.51-.5,7.59,.94,.11,.08,.14,.23,.06,.35-.05,.07-.13,.11-.21,.11Z" style="fill:#FFC100;"></path></g></g><polygon points="178.48 236.29 201.14 227.14 231.61 228.52 250.26 229.75 238.8 253.31 213.21 256.48 200.36 256.48 184.16 239.22 178.48 236.29" style="fill:#eec1bb;"></polygon><g><path d="M187.77,122.87c-1.21-3.78-5.76-6.09-9.58-4.95,2.15-.03,3.87-2.18,3.88-4.32,.01-2.14-1.36-4.11-3.12-5.33-1.76-1.22-3.89-1.82-5.98-2.3-6.78-1.54-13.84-2.06-20.71-.96-5.24,.84-10.6,2.82-13.85,6.98-3.25,4.17-3.47,10.93,.63,14.27-4.45-1.1-8.89,2.32-11.06,6.33-2.68,4.94-2.75,11.81,1.48,15.53,4.14,3.65,10.48,2.97,15.83,1.58-3.91,3.65-7.75,8.61-6.5,13.79,.76,3.15,3.34,5.62,6.27,7.03,3.44,1.65,7.53,2.03,11.13,.77,3.6-1.26,6.61-4.23,7.66-7.88l18.79-31.24c3.87-.97,6.35-5.53,5.14-9.31Z" style="fill:#263238;"></path><path d="M200.98,113.76c-1.01-.64-2.25-.79-3.45-.77-2.53,.05-4.99,.8-7.32,1.76-3.41,1.41-6.69,3.33-9.05,6.15-.77,.92-1.42,1.96-1.94,3.05-.06-.26-.1-.52-.18-.76-1.07-3.16-3.91-5.43-6.95-6.83-3.46-1.59-7.34-2.28-11.14-1.97-1.25,.1-2.65,.41-3.33,1.46-.59,.91-.43,2.14,.1,3.08,.53,.94,1.38,1.66,2.21,2.36,3.74,3.13,7.51,6.25,11.54,9-6.13,1.49-11.66,5.49-14.69,11.01-1.61,2.92-2.55,6.26-2.34,9.58,.21,3.32,1.63,6.62,4.16,8.81,1.15,1,2.57,1.77,4.1,1.85,2.13,.12,4.13-1.11,5.6-2.64,4.74-4.91,5.37-12.65,9.91-17.74,1.71-1.92,3.98-3.49,4.87-5.9l-1.56,.07c1.58-.31,1.97-2.64,.96-3.9-.07-.09-.18-.15-.26-.23,2.25-.5,4.49-1,6.7-1.66,3.95-1.18,7.83-2.91,10.85-5.71,1.44-1.33,2.69-2.97,3.09-4.88,.4-1.91-.23-4.13-1.88-5.18Z" style="fill:#FFC100;"></path><path d="M252.2,141.28c3.42-2.44,5.19-6.74,5.22-10.92,.03-4.18-1.51-8.25-3.66-11.85-2.39-3.99-5.69-7.61-9.99-9.42-6.59-2.77-14.24-.82-20.71,2.23-4.81,2.27-9.42,5.2-12.75,9.33-2.14-2.1-5.54-2.19-8.51-1.76-10.05,1.45-19.33,7.53-24.63,16.14-.35,.56-.69,1.15-1.23,1.54-.61,.44-1.38,.57-2.11,.74-5.08,1.15-9.54,4.75-11.71,9.46-2.17,4.71-2,10.42,.45,14.99,.38,.72,.83,1.46,.77,2.27-.05,.75-.53,1.39-.98,1.98-2.76,3.62-5.51,7.76-5.14,12.29,.27,3.23,2.14,6.14,4.49,8.38,2.36,2.24,5.19,3.9,7.94,5.62,.41,.25,.82,.52,1.09,.91,.53,.76,.39,1.77,.36,2.69-.15,4.67,3.11,9.06,7.4,10.97,4.29,1.91,9.36,1.58,13.72-.17,3.03,2.85,6.84,5.05,10.99,5.48,4.15,.43,8.64-1.16,11.01-4.58l33.76-47.91c3.54-.9,5.82-4.31,7.26-7.65,.87-2.02,1.56-4.22,1.21-6.38-.35-2.17-2.04-4.25-4.25-4.4Z" style="fill:#263238;"></path><g><g><path d="M194.13,205.47c3.67,6.25,2.69,5.72,3.72,12.88,1.11,7.77,2.58,18.23,2.58,18.23,1.25,1.58,10.76,5.66,18.58,6.74,13.05,1.8,16.86-2.14,13.49-12.11-2.45-7.23-.96-13.29,4.11-18.28,11.47-11.53-42.48-7.46-42.48-7.46Z" style="fill:#eec1bb;"></path><path d="M194.13,205.47c3.67,6.25,5.45,4.92,7.82,11.76,8.33,9.73,19.2,12.97,30.04,12.28-1.03-4.28-1.19-12.19,4.56-16.67,11.54-11.43-42.41-7.36-42.41-7.36Z" style="isolation:isolate; opacity:.2;"></path><path d="M176.32,179.76c10.05,21.4,14.67,34.48,31.58,40.89,25.45,9.73,52.26-12.06,49.68-36.27-2.2-21.81-18.29-53.09-46.03-52.53-27.73,.56-45.25,26.57-35.24,47.92Z" style="fill:#eec1bb;"></path><path d="M218.72,160.87c.12-.26,.17-.55,.13-.84-.23-.73-1.01-1.15-1.76-.95-4.36,1.11-7.89,4.29-9.42,8.49-.23,.72,.18,1.49,.91,1.71h.01c.73,.21,1.5-.19,1.75-.91h0c1.31-3.32,4.17-5.79,7.66-6.62,.35-.19,.61-.51,.72-.89Z" style="fill:#263238;"></path><path d="M246.5,151.31c.25-.14,.46-.35,.59-.6,.26-.72-.11-1.52-.84-1.79-4.19-1.63-8.91-1.13-12.66,1.34-.62,.44-.76,1.3-.32,1.91l.03,.04h0c.48,.59,1.33,.72,1.96,.29h0c3.02-1.92,6.81-2.25,10.12-.87,.4,.06,.8-.05,1.12-.31Z" style="fill:#263238;"></path><path d="M237.16,175.68l8.17,3.11s-.91,3.2-7.02,5.78l-1.16-8.89Z" style="fill:#d4827d;"></path><path d="M242.6,191.47c.49,2.77-.85,7.91-1.63,9.73l-1.76,.11c-7.9,.46-11.74-1.93-13.61-4.74-1.34-2.21-1.86-4.81-1.47-7.36,4.36,2.26,11.73,2.4,15.79,2.32,1.63,.04,2.68-.06,2.68-.06Z" style="fill:#263238;"></path><path d="M239.88,191.52l-.56,2.88c-7.48,.4-12.81-.31-15.29-2.42-.1-.93-.06-1.86,.11-2.78,4.33,2.26,11.69,2.4,15.75,2.32Z" style="fill:#fff;"></path><path d="M239.21,201.36c-7.9,.46-11.74-1.93-13.61-4.74,3.03-.12,6.05,.3,8.93,1.24,1.88,.66,3.52,1.88,4.67,3.5Z" style="fill:#c15854;"></path></g><path d="M215.7,177.13c.53,2.29,2.21,3.89,3.73,3.51,1.52-.38,2.22-2.52,1.74-4.8-.49-2.29-2.23-3.87-3.75-3.51-1.52,.36-2.18,2.52-1.72,4.81Z" style="fill:#263238;"></path><path d="M239.98,168.73c.55,2.29,2.23,3.89,3.73,3.51,1.5-.39,2.23-2.54,1.74-4.82-.49-2.29-2.21-3.85-3.73-3.51-1.52,.34-2.25,2.53-1.74,4.82Z" style="fill:#263238;"></path></g><path d="M246.91,139.89c-14.9-9.09-33.77-11.46-50.48-6.35-8.77,2.68-17.41,7.85-21.19,16.16-3.13,6.89-8.8,17.57-6.18,24.66,2.62,7.09,7.09,17.99,11.44,24.19l8.94,7.06c1.88-1.18,2.62-3.53,2.94-5.72,.32-2.19,.38-4.49,1.45-6.43,1.07-1.94-3.02-6.02-1.09-4.93,1.48,.83,.98,2.69,2.28,3.78,1.79,1.51,4.14,2.81,5.47,.88,0,0,4.19,.51,5.39-2.19,.53-1.19,1.72-4.28-.59-6.05-.91-.69-.12-2.24-.04-3.38,.19-2.69-1.06-5.34-2.85-7.36-1.79-2.03-4.11-3.52-6.43-4.92,3.12-1.12,5.64-3.76,6.59-6.92,.95-3.15,.31-6.74-1.68-9.38,6.56,1.92,14.29-2.46,15.96-9.06,5.44,2.95,12.67,2.24,17.42-1.71,3.22,2.28,7.21,3.47,11.16,3.34,1.67-.06,3.71-.7,3.93-2.35,.2-1.45-1.19-2.58-2.45-3.35Z" style="fill:#263238;"></path><g><path d="M196.09,187.63s-7.95-9.94-14.45-5.34c-12.52,8.86,1.72,26.51,11.48,23.82,9.75-2.68,9.28-12.9,2.97-18.48Z" style="fill:#eec1bb;"></path><path d="M194.03,199.55c-3.15,.82-6.73-1.41-8.77-3.64-.97-1.06-1.9-2.44-1.91-3.93,0-.68,.12-1.31,.4-1.94,.7-1.57,2.3-1.95,3.89-1.76,.48,.06,.47-.69,0-.75-1.62-.19-3.27,.18-4.23,1.59-.46,.68-.62,1.45-.76,2.23-.28,1.58,.54,3.17,1.48,4.39,1.17,1.5,2.72,2.73,4.41,3.59s3.76,1.46,5.69,.96c.47-.12,.27-.85-.2-.72h0Z" style="opacity:.2;"></path></g><polygon points="224.01 200.76 223.8 200.81 221.72 201.36 220.2 198.06 221.49 197.31 223.63 199.34 224.01 200.76" style="fill:#b97964;"></polygon><path d="M244.9,203.11s1.2-2.15,1.44-2.35c.24-.2,1.84,1.17,1.84,1.17,0,0-.16,.86,0,1.17,.16,.32-.69,1.27-.69,1.27l-2.16-.88" style="fill:#b97964;"></path></g><g><path d="M247.23,227.14s0,19.12-22.26,21.18c-22.26,2.06-33.96-17.62-33.96-17.62l-21.55,8.98,1.19,10.57,5.46,27.88-4.56,84.56,18.98-4.52c2.43-.51,7.58-1.05,10.05-.82,30.43,3.83,41.67,9.19,59.7,3.87,8-2.36,14.15-8.77,16.28-16.79h0c.18-.69,.06-1.42-.33-2.02l-.99-1.5,1.37-35.19,1.89-69.84-31.28-8.74Z" style="fill:#FFC100;"></path><g style="isolation:isolate; opacity:.2;"><path d="M272.08,256.14c-11.24-.59-22.64,2.73-31.79,9.25l.14-2.38-39.2,59.79-15.17,8.11c1.52,4.81,6.53,8.01,11.59,8.34,5.06,.33,10.04-1.83,13.99-4.99,3.95-3.16,7.01-7.27,9.9-11.41,6.97-9.98,13.27-20.51,17.71-31.83,1.26-3.2,2.43-6.58,4.86-9.03,5.24-5.28,14.12-4.4,20.59-8.11,6-3.44,9.19-11.1,7.38-17.75Z"></path></g></g><g><path d="M292.47,251.34s33.5,36.75,31.13,45.45-10.65,13.87-22.24,14.58c-11.59,.71-25.01-14.58-25.01-14.58l1.73-41.08,14.39-4.37Z" style="fill:#eec1bb;"></path><path d="M277.5,259.83l11.44,23.6c2.71,5.59,6.68,10.5,11.71,14.17,.49,.35,.94,.67,1.35,.93,0,0-9.74-3.84-13.22-9.88-1.12-1.94-11.28-19-11.28-19v-9.82Z" style="isolation:isolate; opacity:.2;"></path></g><g><g><path d="M226.92,205.63c0,.35,.09,.7,.29,.98,.37,.52,.87,.85,1.53,1.08,.89,.32,1.91,.24,2.73-.21,.29,1.6,1.67,2.95,3.29,3.22s3.36-.56,4.16-1.99c1.17,.68,2.57,1.02,3.9,.75,1.33-.26,2.55-1.17,3.03-2.43,.13-.34,.2-.7,.23-1.06l41.63,45.22-31.56,18.83-4.28,.51-44.11-52.23-.47-5.05,19.64-7.64h0Z" style="fill:#b97964;"></path><path d="M229.51,231.71l21.47-10.46,3.08-1.5c.43-.21,.05-.86-.38-.65l-21.47,10.46-3.08,1.5c-.43,.21-.05,.86,.38,.65h0Z" style="opacity:.2;"></path><path d="M256.53,262.18c-4.81-5.4-9.62-10.8-14.43-16.2-7.72-8.65-15.43-17.31-23.21-25.91-1.3-1.43-2.6-2.87-3.91-4.29-.44-.47-1.02-1.39-1.63-1.67v.65l13.74-6.05-.45-.06,14.3,15.66,22.81,24.97,5.26,5.75c.33,.36,.86-.17,.53-.53l-14.3-15.66-22.81-24.97-5.26-5.75c-.12-.13-.3-.12-.45-.06l-13.74,6.05c-.25,.11-.24,.54,0,.65,.22,.1,.96,.99,1.28,1.34,1.1,1.18,2.18,2.38,3.26,3.57,3.45,3.81,6.88,7.63,10.31,11.46,7.67,8.56,15.31,17.13,22.95,25.72,1.74,1.95,3.48,3.91,5.22,5.87,.32,.36,.85-.17,.53-.53h0Z" style="opacity:.2;"></path><path d="M245.51,210.14c.16,.07,.78,.83,1.05,1.12,.89,.98,1.76,1.98,2.63,2.97,2.75,3.15,5.49,6.31,8.22,9.48,6.07,7.04,12.12,14.1,18.17,21.17,1.39,1.62,2.78,3.25,4.17,4.88,.31,.37,.84-.17,.53-.53-3.82-4.47-7.64-8.94-11.47-13.4-6.12-7.14-12.24-14.28-18.42-21.37-1.05-1.2-2.1-2.4-3.16-3.59-.36-.4-.82-1.15-1.33-1.38-.44-.2-.82,.44-.38,.65h0Z" style="opacity:.2;"></path><path d="M220.95,222.57l21.84-10.89,3.1-1.54c.43-.22,.05-.86-.38-.65l-21.84,10.89-3.1,1.54c-.43,.22-.05,.86,.38,.65h0Z" style="opacity:.2;"></path><path d="M235.83,239.94l21.47-10.46,3.08-1.5c.43-.21,.05-.86-.38-.65l-21.47,10.46-3.08,1.5c-.43,.21-.05,.86,.38,.65h0Z" style="opacity:.2;"></path><path d="M248.39,252.61l21.31-10.94,2.98-1.53c.43-.22,.05-.87-.38-.65l-21.31,10.94-2.98,1.53c-.43,.22-.05,.87,.38,.65h0Z" style="opacity:.2;"></path><path d="M256.46,262.49l20.8-11.83,2.93-1.67c.42-.24,.04-.89-.38-.65l-20.8,11.83-2.93,1.67c-.42,.24-.04,.89,.38,.65h0Z" style="opacity:.2;"></path><polygon points="207.28 213.27 256.15 270.04 251.86 270.55 207.75 218.32 207.28 213.27" style="isolation:isolate; opacity:.2;"></polygon><path d="M222.94,264.52s3.31-18.11,4.05-22.5c.39-2.32,2.42-5.49,4.25-7.97,1.76-2.38,4.74-3.53,7.65-2.95l1.54,.31s.74-.73,4.79,0,9.57,2.93,9.2,4.21l.02,1.28s3.11,1.28,2.93,3.11l-.18,1.83s2.78,.91,.19,3.11c-2.58,2.2-7.92,1.46-7.92,1.46,0,0-1.66,15.15-4.6,18.11-2.95,2.96-5.89,6.04-5.89,6.04l-16.02-6.04Z" style="fill:#eec1bb;"></path><path d="M254.47,232.67s4.06-4.15,6.04-5.46c1.98-1.31,7.58-1.2,7.58-1.2,0,0,8.13,1.86,9.78,2.18,1.65,.33,3.62-1.09,5.45,2.32,.78,1.45,9.15,20.82,9.15,20.82l-9.34,9.72s-3.29-1.75-5.05-5.35-3.62-13.43-3.62-13.43l-3.19-1.96s-8.9,3.27-10.32,2.4c-1.43-.87-2.47-3.71-2.47-3.71,0,0-2.91,.11-4.01-1.09-1.1-1.2-.52-3.2-.52-3.2l.52-2.04Z" style="fill:#eec1bb;"></path><path d="M258.85,239.78c2.31-1.37,4.69-2.65,7.13-3.77,1.67-.77,3.31-1.35,5.12-1.68,1.71-.31,3.64-.62,5.26-.84,.47-.06,.48-.81,0-.75-3.57,.48-7.07,.97-10.37,2.45-2.58,1.16-5.08,2.5-7.51,3.94-.42,.25-.04,.89,.38,.65h0Z" style="opacity:.2;"></path><path d="M254.32,235.5c1.46-.14,3.08-.34,4.39-1.03,1.45-.77,2.94-1.44,4.46-2.08,1.67-.71,3.36-1.43,5.07-2.02s3.5-.54,5.21-.39c.48,.04,.48-.71,0-.75-1.64-.14-3.44-.18-5.03,.29-1.69,.5-3.33,1.26-4.95,1.94s-3.2,1.29-4.7,2.11c-1.37,.75-2.9,1.03-4.44,1.18-.48,.05-.48,.8,0,.75h0Z" style="opacity:.2;"></path><path d="M256.91,231.48c1.67-1.18,3.38-2.39,5.21-3.31,1.08-.54,2.32-.74,3.5-.97,.9-.17,1.81-.33,2.72-.46,.48-.07,.27-.79-.2-.72-.93,.14-1.86,.3-2.79,.48-1.19,.23-2.42,.45-3.51,.98-1.87,.91-3.61,2.16-5.3,3.36-.39,.28-.02,.93,.38,.65h0Z" style="opacity:.2;"></path><path d="M234.02,238.03s.03-.04,.05-.06l.04-.05s-.04,.05,.02-.02c.11-.14,.22-.28,.34-.42,.36-.45,.73-.89,1.11-1.32,.99-1.13,2.03-2.24,3.18-3.2,.54-.45,1.13-.91,1.78-1.18,.44-.18,.25-.91-.2-.72-1.33,.56-2.45,1.61-3.47,2.62s-1.95,2.06-2.85,3.16c-.22,.27-.45,.54-.65,.82-.27,.4,.38,.77,.65,.38h0Z" style="opacity:.2;"></path><path d="M239.31,241.11c.9-.73,1.82-1.44,2.74-2.14,.73-.55,1.47-1.09,2.22-1.6,.51-.34,1.04-.74,1.64-.9,1.51-.4,3.24-.22,4.78-.11,1.03,.07,2.07,.17,3.09,.31,.48,.06,.47-.69,0-.75-2.07-.28-4.2-.47-6.3-.39-1.07,.04-2.01,.19-2.93,.76-1.2,.74-2.32,1.6-3.44,2.45-.79,.6-1.57,1.22-2.35,1.84-.38,.3,.16,.83,.53,.53h0Z" style="opacity:.2;"></path><path d="M244.17,246.07l5.24-3.61,1.34-.92c.12-.08,.25-.16,.37-.25,.06-.05,.27-.13,.08-.09-.21,.05,.08,.04,.15,.05,.22,.04,.44,.05,.66,.08l1.89,.22,3.32,.39c.48,.06,.47-.69,0-.75l-2.8-.33-2.11-.25c-.37-.04-.78-.15-1.16-.14-.54,.02-1.19,.69-1.61,.99l-3.42,2.35-2.33,1.6c-.39,.27-.02,.92,.38,.65h0Z" style="opacity:.2;"></path></g><path d="M163.42,263.01c-.31,.92,10.53,59.13,18.92,67.73,2.17,2.23,13.32,5.81,20.23,.65,17.49-13.09,36.48-62.35,36.48-62.35l-16.1-4.52-24.67,25.1-2.3-24.39-32.55-2.22Z" style="fill:#eec1bb;"></path><path d="M160.92,290.73c0-1.27-1.84-46.01,8.55-51.05,7.11-3.45,27.51,23.33,27.51,23.33l1.08,22.14-37.13,5.58Z" style="fill:#FFC100;"></path><path d="M198.27,289.62l-.19,1.08-3.89,21.84s-2.96-4.07-2.1-12.42c.86-8.35,5.97-12.8,5.97-12.8" style="isolation:isolate; opacity:.2;"></path></g><path d="M177.48,239.81s13.51,5.33,17.62,22.64c2.25,9.46,3.17,20.56,3.17,20.56,0,0,2.58-14.25-.22-21.94-2.8-7.69-6.69-17.52-20.58-21.25Z" style="isolation:isolate; opacity:.2;"></path></g><path d="M275.25,340.91s-3.72,8.82-19.08,11.05-39.24-4.58-39.24-4.58c0,0,26.85,13.24,40.64,8.54,13.79-4.7,17.68-15.01,17.68-15.01Z" style="isolation:isolate; opacity:.2;"></path></g></svg>
