<svg xmlns="http://www.w3.org/2000/svg" version="1.1" xmlns:xlink="http://www.w3.org/1999/xlink" xmlns:svgjs="http://svgjs.dev/svgjs" width="1438" height="560" preserveAspectRatio="none" viewBox="0 0 1438 560">
    <g mask="url(&quot;#SvgjsMask1075&quot;)" fill="none">
        <rect width="1438" height="560" x="0" y="0" fill="transparent"></rect>
        <path d="M184.61028696969888 85.69202431283398L95.58385057852045-56.780055841445574-46.888229575759084 32.24638054973285 42.13820681541932 174.7184607040124z" fill="#f0f0f0" class="triangle-float3"></path>
        <path d="M25.566,87.279C46.846,87.197,65.783,73.292,75.06,54.141C83.337,37.054,77.035,17.764,67.07,1.603C57.71,-13.576,43.398,-26.352,25.566,-26.128C8.044,-25.908,-4.917,-12.257,-14.171,2.623C-24.158,18.683,-32.626,37.403,-24.59,54.523C-15.496,73.897,4.164,87.361,25.566,87.279" fill="#f0f0f0" class="triangle-float1"></path>
        <path d="M-96.58 21.92 a118.5 118.5 0 1 0 237 0 a118.5 118.5 0 1 0 -237 0z" fill="#f0f0f0" class="triangle-float3"></path>
        <path d="M1257.966902114114 101.14435569428869L1410.226610336271 172.14422366672625 1481.2264783087087 19.88451544456909 1328.9667700865516-51.11535252786845z" fill="#f0f0f0" class="triangle-float1"></path>
        <path d="M1388.5106042161183-37.10597802425027L1283.6855386028549 123.97417820328182 1451.2762990465053 135.69326579229488z" fill="#f0f0f0" class="triangle-float1"></path>
        <path d="M1460.359,301.657C1519.515,302.779,1572.761,267.574,1602.273,216.293C1631.711,165.14,1636.74,100.577,1604.547,51.112C1574.618,5.126,1515.049,-6.168,1460.359,-1.76C1413.63,2.007,1376.327,31.741,1351.499,71.508C1324.702,114.428,1305.838,165.341,1327.473,211.08C1352.04,263.018,1402.914,300.567,1460.359,301.657" fill="#f0f0f0" class="triangle-float2"></path>
        <path d="M79.209,620.971C113.226,620.737,145.757,604.911,162.876,575.514C180.1,545.936,178.312,509.512,161.463,479.719C144.334,449.432,113.978,428.915,79.209,427.572C41.935,426.132,3.74,440.564,-14.846,472.906C-33.379,505.155,-26.423,545.285,-6.479,576.681C11.999,605.769,44.749,621.208,79.209,620.971" fill="#f0f0f0" class="triangle-float1"></path>
        <path d="M-74.36820968895924 524.6482959276976L61.54664536603195 623.3962183128331 24.379712696176213 388.7334408727064z" fill="#f0f0f0" class="triangle-float1"></path>
        <path d="M-77.44 450.77 a80.21 80.21 0 1 0 160.42 0 a80.21 80.21 0 1 0 -160.42 0z" fill="#f0f0f0" class="triangle-float1"></path>
        <path d="M1330.4261222925848 382.4995581882814L1267.4922145987116 538.2664457555016 1423.2591021659318 601.2003534493749 1486.193009859805 445.4334658821546z" fill="#f0f0f0" class="triangle-float2"></path>
        <path d="M1233.64 465.68 a110.04 110.04 0 1 0 220.08 0 a110.04 110.04 0 1 0 -220.08 0z" fill="#f0f0f0" class="triangle-float1"></path>
        <path d="M1441.774,674.171C1490.133,674.171,1546.08,679.748,1572.561,639.284C1600.596,596.444,1586.418,539.249,1557.894,496.733C1532.538,458.938,1487.263,445.83,1441.774,444.338C1392.695,442.729,1339.027,447.88,1311.67,488.658C1281.689,533.347,1280.091,595.224,1310.99,639.283C1338.757,678.876,1393.415,674.171,1441.774,674.171" fill="#f0f0f0" class="triangle-float2"></path>
    </g>
    <defs>
        <mask id="SvgjsMask1075">
            <rect width="1438" height="560" fill="#ffffff"></rect>
        </mask>
        <style>
            @keyframes float1 {
                    0%{transform: translate(0, 0)}
                    50%{transform: translate(-10px, 0)}
                    100%{transform: translate(0, 0)}
                }

                .triangle-float1 {
                    animation: float1 5s infinite;
                }

                @keyframes float2 {
                    0%{transform: translate(0, 0)}
                    50%{transform: translate(-5px, -5px)}
                    100%{transform: translate(0, 0)}
                }

                .triangle-float2 {
                    animation: float2 4s infinite;
                }

                @keyframes float3 {
                    0%{transform: translate(0, 0)}
                    50%{transform: translate(0, -10px)}
                    100%{transform: translate(0, 0)}
                }

                .triangle-float3 {
                    animation: float3 6s infinite;
                }
        </style>
    </defs>
</svg>