<svg id="wave" style="transform:rotate(0deg); transition: 0.3s" viewBox="0 0 1440 320" version="1.1" xmlns="http://www.w3.org/2000/svg"><defs><linearGradient id="sw-gradient-0" x1="0" x2="0" y1="1" y2="0"><stop stop-color="#567752" offset="0%"></stop><stop stop-color="#567752" offset="100%"></stop></linearGradient></defs><path style="transform:translate(0, 0px); opacity:1" fill="url(#sw-gradient-0)" d="M0,64L60,58.7C120,53,240,43,360,37.3C480,32,600,32,720,53.3C840,75,960,117,1080,133.3C1200,149,1320,139,1440,138.7C1560,139,1680,149,1800,154.7C1920,160,2040,160,2160,165.3C2280,171,2400,181,2520,186.7C2640,192,2760,192,2880,192C3000,192,3120,192,3240,176C3360,160,3480,128,3600,112C3720,96,3840,96,3960,80C4080,64,4200,32,4320,58.7C4440,85,4560,171,4680,213.3C4800,256,4920,256,5040,250.7C5160,245,5280,235,5400,224C5520,213,5640,203,5760,197.3C5880,192,6000,192,6120,208C6240,224,6360,256,6480,256C6600,256,6720,224,6840,181.3C6960,139,7080,85,7200,80C7320,75,7440,117,7560,160C7680,203,7800,245,7920,218.7C8040,192,8160,96,8280,64C8400,32,8520,64,8580,80L8640,96L8640,320L8580,320C8520,320,8400,320,8280,320C8160,320,8040,320,7920,320C7800,320,7680,320,7560,320C7440,320,7320,320,7200,320C7080,320,6960,320,6840,320C6720,320,6600,320,6480,320C6360,320,6240,320,6120,320C6000,320,5880,320,5760,320C5640,320,5520,320,5400,320C5280,320,5160,320,5040,320C4920,320,4800,320,4680,320C4560,320,4440,320,4320,320C4200,320,4080,320,3960,320C3840,320,3720,320,3600,320C3480,320,3360,320,3240,320C3120,320,3000,320,2880,320C2760,320,2640,320,2520,320C2400,320,2280,320,2160,320C2040,320,1920,320,1800,320C1680,320,1560,320,1440,320C1320,320,1200,320,1080,320C960,320,840,320,720,320C600,320,480,320,360,320C240,320,120,320,60,320L0,320Z"></path></svg>