<svg id="visual" viewBox="0 0 900 600" width="900" height="600" xmlns="http://www.w3.org/2000/svg" xmlns:xlink="http://www.w3.org/1999/xlink" version="1.1"><rect x="0" y="0" width="900" height="600" fill="#ffffff"></rect><path d="M0 488L21.5 495.8C43 503.7 86 519.3 128.8 521.8C171.7 524.3 214.3 513.7 257.2 509.3C300 505 343 507 385.8 505.8C428.7 504.7 471.3 500.3 514.2 503.7C557 507 600 518 642.8 517.5C685.7 517 728.3 505 771.2 498.2C814 491.3 857 489.7 878.5 488.8L900 488L900 601L878.5 601C857 601 814 601 771.2 601C728.3 601 685.7 601 642.8 601C600 601 557 601 514.2 601C471.3 601 428.7 601 385.8 601C343 601 300 601 257.2 601C214.3 601 171.7 601 128.8 601C86 601 43 601 21.5 601L0 601Z" fill="#567752" stroke-linecap="round" stroke-linejoin="miter"></path></svg>